<?xml version="1.0" standalone="no"?>
<!DOCTYPE svg PUBLIC "-//W3C//DTD SVG 20010904//EN"
 "http://www.w3.org/TR/2001/REC-SVG-20010904/DTD/svg10.dtd">
<svg version="1.0" xmlns="http://www.w3.org/2000/svg"
 width="260.000000pt" height="260.000000pt" viewBox="0 0 260.000000 260.000000"
 preserveAspectRatio="xMidYMid meet">
<metadata>
Created by potrace 1.14, written by Peter Selinger 2001-2017
</metadata>
<g transform="translate(0.000000,260.000000) scale(0.100000,-0.100000)"
fill="#000000" stroke="none">
<path d="M315 1670 c-74 -23 -144 -114 -145 -187 l0 -33 75 0 74 0 11 40 c29
106 160 87 160 -23 0 -58 -28 -99 -185 -266 l-125 -134 0 -54 0 -53 245 0 245
0 0 95 0 95 -60 0 c-52 0 -60 -2 -60 -19 0 -46 -9 -51 -86 -51 -41 0 -74 4
-74 8 0 5 12 19 26 33 64 59 199 218 215 254 11 24 19 63 19 100 0 74 -27 127
-88 169 -38 27 -51 30 -130 33 -48 1 -100 -2 -117 -7z"/>
<path d="M890 1669 c-50 -20 -93 -63 -118 -118 -24 -50 -27 -70 -30 -202 -5
-169 6 -238 48 -301 37 -56 95 -89 170 -95 84 -8 145 12 196 62 66 67 76 112
72 323 -3 158 -5 181 -25 217 -27 51 -68 90 -115 109 -42 18 -159 20 -198 5z
m151 -135 c23 -25 24 -31 27 -204 4 -195 -4 -229 -53 -252 -30 -13 -74 2 -95
35 -17 25 -27 275 -15 354 13 86 85 121 136 67z"/>
<path d="M1430 1664 c-56 -24 -109 -82 -125 -138 -23 -78 -25 -76 64 -76 l79
0 6 35 c16 85 124 103 156 26 29 -71 -1 -123 -182 -314 l-128 -135 0 -51 0
-51 250 0 250 0 0 95 0 95 -59 0 c-61 0 -71 -7 -71 -51 0 -17 -8 -19 -80 -19
l-81 0 112 123 c134 146 163 200 157 287 -9 121 -96 190 -237 190 -45 -1 -90
-7 -111 -16z"/>
<path d="M1985 1444 c-77 -124 -142 -230 -144 -236 -1 -5 0 -25 3 -44 l7 -34
139 0 140 0 0 -30 c0 -25 -4 -30 -35 -36 -34 -6 -35 -7 -35 -55 l0 -49 150 0
150 0 0 49 c0 48 -1 49 -35 55 -31 6 -35 11 -35 36 0 28 3 30 35 30 l35 0 0
50 0 50 -35 0 -35 0 0 220 0 220 -82 0 -83 -1 -140 -225z m145 -99 l0 -115
-71 0 c-39 0 -69 4 -67 8 5 13 133 222 136 222 1 0 2 -52 2 -115z"/>
</g>
</svg>
